@startuml door_release_fsm


state DOOR_RELEASE_FSM {
    [*] --> STATE_DOOR_RELEASE_INACTIVE
    state STATE_DOOR_RELEASE_INACTIVE
    state STATE_DOOR_RELEASE_ACTIVE

    STATE_DOOR_RELEASE_INACTIVE: output state_door_release = STATE_DOOR_RELEASE_INACTIVE
    STATE_DOOR_RELEASE_INACTIVE: is_door_release_led_on = false

    STATE_DOOR_RELEASE_ACTIVE: output state_door_release = STATE_DOOR_RELEASE_ACTIVE
    STATE_DOOR_RELEASE_ACTIVE: is_door_release_led_on = true


    STATE_DOOR_RELEASE_INACTIVE --> STATE_DOOR_RELEASE_ACTIVE : cmd_door_release_activate
    STATE_DOOR_RELEASE_ACTIVE --> STATE_DOOR_RELEASE_INACTIVE : cmd_door_release_deactivate
}

@enduml